<?xml version="1.0" standalone="no"?>
<!DOCTYPE svg PUBLIC "-//W3C//DTD SVG 20010904//EN"
 "http://www.w3.org/TR/2001/REC-SVG-20010904/DTD/svg10.dtd">
<svg version="1.0" xmlns="http://www.w3.org/2000/svg"
 width="200.000000pt" height="200.000000pt" viewBox="0 0 200.000000 200.000000"
 preserveAspectRatio="xMidYMid meet">
<metadata>
Created by potrace 1.16, written by Peter Selinger 2001-2019
</metadata>
<g transform="translate(0.000000,200.000000) scale(0.100000,-0.100000)"
fill="#000000" stroke="none">
<path d="M0 1000 l0 -1000 995 0 995 0 0 1000 0 1000 -995 0 -995 0 0 -1000z
m950 584 c-12 -13 -5 -15 64 -13 42 1 78 0 79 -2 1 -2 13 -26 26 -54 14 -28
26 -44 29 -36 2 7 -1 17 -8 21 -8 5 -9 10 -2 14 13 8 26 -29 17 -44 -10 -17 4
-62 16 -54 8 4 9 -1 4 -16 -4 -14 -3 -20 3 -16 5 3 13 -1 16 -10 3 -8 2 -12
-4 -9 -5 3 -3 -9 6 -27 8 -18 17 -41 21 -50 3 -10 10 -15 16 -11 5 3 7 1 3 -5
-8 -14 23 -92 37 -92 6 0 7 -3 4 -6 -3 -4 -1 -16 5 -28 7 -11 11 -24 10 -28
-1 -5 2 -8 8 -8 5 0 6 -7 3 -17 -4 -11 -3 -14 5 -9 8 5 12 0 12 -14 0 -12 3
-19 8 -16 4 2 8 -8 8 -23 2 -31 32 -84 44 -76 4 2 6 -9 4 -25 -2 -16 3 -35 11
-43 8 -8 12 -17 9 -20 -14 -13 41 -81 57 -71 4 2 5 -6 1 -18 l-5 -22 -8 22
c-5 12 -11 22 -13 22 -9 0 15 -54 32 -74 9 -10 15 -19 12 -20 -8 -2 23 -86 32
-86 4 0 8 -8 8 -18 0 -11 9 -27 20 -37 11 -10 20 -23 20 -29 0 -6 -5 -4 -10 4
-13 21 -12 6 1 -24 7 -14 15 -23 19 -21 5 3 11 -2 14 -11 3 -8 2 -13 -2 -10
-5 3 -6 -8 -4 -24 2 -17 8 -27 13 -24 15 9 10 -3 -7 -16 -12 -11 -15 -11 -12
1 2 11 -15 14 -84 15 -57 1 -88 -2 -88 -9 0 -6 -13 4 -30 23 -16 18 -28 36
-25 39 2 4 0 13 -6 21 -7 13 -9 13 -9 0 -1 -12 -3 -11 -11 3 -8 14 -14 15 -24
7 -12 -10 -12 -7 -2 13 6 14 15 23 19 21 10 -6 10 -1 2 20 -3 9 -10 13 -16 10
-5 -3 -8 0 -7 7 2 8 -3 31 -10 52 -9 28 -17 37 -28 32 -12 -4 -13 -2 -5 8 9
10 8 24 -5 56 -12 30 -19 38 -25 29 -6 -9 -7 -6 -3 8 3 13 0 28 -10 37 -8 9
-15 20 -14 24 1 4 0 15 -4 23 -3 8 -13 36 -23 63 -9 26 -21 47 -27 47 -6 0 -8
3 -4 6 3 4 -1 21 -10 38 -10 17 -16 34 -15 39 1 4 -2 7 -8 7 -5 0 -6 7 -3 17
4 11 3 14 -5 9 -8 -4 -10 -2 -6 7 3 8 -2 22 -11 30 -9 9 -14 18 -13 19 6 6
-26 88 -34 88 -4 0 -8 9 -8 21 0 11 -4 17 -10 14 -5 -3 -7 0 -4 8 3 8 0 18 -5
22 -6 3 -8 11 -5 17 4 7 2 8 -5 4 -7 -4 -10 -13 -8 -19 2 -7 -1 -19 -8 -27
-25 -31 -44 -97 -32 -109 8 -8 6 -15 -8 -29 -18 -16 -18 -16 -6 1 8 9 11 20 7
24 -8 8 -7 10 -44 -74 -18 -42 -29 -80 -25 -89 4 -11 2 -15 -4 -11 -12 8 -36
-40 -27 -55 4 -7 2 -8 -4 -4 -7 4 -13 1 -13 -8 -2 -24 -3 -25 -42 -109 -20
-42 -37 -82 -37 -87 0 -6 -4 -18 -9 -28 -54 -101 -69 -171 -35 -158 14 6 15 4
4 -9 -7 -9 -16 -12 -19 -8 -9 12 -31 14 -31 3 0 -5 8 -14 18 -20 15 -9 14 -10
-5 -5 -23 6 -28 -4 -24 -41 1 -8 -35 -12 -117 -13 l-118 -2 1 30 c0 16 5 34 9
38 5 4 6 2 2 -4 -4 -7 -2 -13 3 -13 6 0 11 2 11 4 0 2 3 12 7 22 4 11 3 15 -4
11 -7 -5 -9 0 -6 13 3 11 9 23 14 26 5 3 6 -3 3 -13 -2 -10 9 10 26 45 17 35
27 68 24 74 -5 7 -2 8 6 3 8 -5 11 -3 8 6 -3 8 1 20 9 27 7 7 13 24 13 38 0
13 4 24 9 24 10 0 27 39 23 53 -1 4 3 7 9 7 8 0 7 5 -1 16 -11 12 -11 15 0 12
8 -2 15 2 15 7 1 6 19 46 40 89 20 44 38 84 39 90 1 6 8 21 14 34 7 12 10 28
6 34 -4 6 -3 8 2 5 6 -3 16 9 23 26 8 18 22 50 32 72 10 22 19 47 21 55 2 8 9
21 16 29 7 7 11 20 8 28 -4 9 -1 11 5 7 7 -4 10 -1 7 7 -5 16 -39 19 -51 4 -5
-6 -7 -4 -4 5 2 10 15 14 35 13 33 -2 37 5 34 52 -2 16 0 17 8 5 6 -10 10 -11
10 -2 0 23 2 27 17 44 8 9 12 22 8 27 -3 6 -2 11 3 11 11 0 34 58 28 69 -3 4
4 8 15 8 10 1 26 9 35 17 20 21 30 21 14 0z m317 -276 c-3 -8 -6 -5 -6 6 -1
11 2 17 5 13 3 -3 4 -12 1 -19z m10 -33 c0 -8 -4 -12 -9 -9 -5 3 -6 10 -3 15
9 13 12 11 12 -6z m-530 -21 c1 -18 -2 -23 -9 -16 -6 6 -8 18 -5 26 9 22 12
20 14 -10z m-52 -52 c-8 -8 -25 10 -19 20 4 6 9 5 15 -3 4 -7 6 -15 4 -17z
m315 18 c0 -5 -5 -10 -11 -10 -5 0 -7 5 -4 10 3 6 8 10 11 10 2 0 4 -4 4 -10z
m-310 -34 c0 -3 -4 -8 -10 -11 -5 -3 -10 -1 -10 4 0 6 5 11 10 11 6 0 10 -2
10 -4z m-39 -69 c-10 -9 -11 -8 -5 6 3 10 9 15 12 12 3 -3 0 -11 -7 -18z m271
-69 c-7 -7 -12 -8 -12 -2 0 14 12 26 19 19 2 -3 -1 -11 -7 -17z m122 6 c3 -8
2 -12 -4 -9 -6 3 -10 10 -10 16 0 14 7 11 14 -7z m-449 -124 c3 -5 1 -10 -4
-10 -6 0 -11 5 -11 10 0 6 2 10 4 10 3 0 8 -4 11 -10z m535 -55 c0 -5 -5 -3
-10 5 -5 8 -10 20 -10 25 0 6 5 3 10 -5 5 -8 10 -19 10 -25z m342 -107 c-7 -7
-12 -8 -12 -2 0 14 12 26 19 19 2 -3 -1 -11 -7 -17z m21 -27 c-4 -16 -8 -17
-18 -8 -9 9 -10 14 -1 19 19 13 24 9 19 -11z m-709 -37 c3 -8 2 -12 -4 -9 -6
3 -10 10 -10 16 0 14 7 11 14 -7z m437 -21 c-12 -20 -14 -14 -5 12 4 9 9 14
11 11 3 -2 0 -13 -6 -23z m-804 -78 c-16 -17 -17 -14 -10 14 4 15 8 19 13 10
5 -6 3 -18 -3 -24z m1143 10 c0 -8 -2 -15 -4 -15 -2 0 -6 7 -10 15 -3 8 -1 15
4 15 6 0 10 -7 10 -15z m-1155 -54 c3 -5 2 -12 -3 -15 -5 -3 -9 1 -9 9 0 17 3
19 12 6z m1175 -12 c0 -6 -4 -7 -10 -4 -5 3 -10 11 -10 16 0 6 5 7 10 4 6 -3
10 -11 10 -16z m-293 -91 c-3 -7 -5 -2 -5 12 0 14 2 19 5 13 2 -7 2 -19 0 -25z
m-597 -42 c0 -3 -4 -8 -10 -11 -5 -3 -10 -1 -10 4 0 6 5 11 10 11 6 0 10 -2
10 -4z"/>
</g>
</svg>
