<?xml version="1.0" standalone="no"?>
<!DOCTYPE svg PUBLIC "-//W3C//DTD SVG 20010904//EN"
 "http://www.w3.org/TR/2001/REC-SVG-20010904/DTD/svg10.dtd">
<svg version="1.0" xmlns="http://www.w3.org/2000/svg"
 width="200.000000pt" height="200.000000pt" viewBox="0 0 200.000000 200.000000"
 preserveAspectRatio="xMidYMid meet">
<metadata>
Created by potrace 1.16, written by Peter Selinger 2001-2019
</metadata>
<g transform="translate(0.000000,200.000000) scale(0.100000,-0.100000)"
fill="#000000" stroke="none">
<path d="M1395 1113 c-35 -9 -73 -53 -80 -94 -17 -97 79 -169 165 -124 81 42
78 176 -5 211 -35 14 -45 15 -80 7z m69 -34 c51 -24 59 -121 13 -154 -26 -18
-76 -19 -100 -1 -42 32 -41 113 1 146 28 23 50 25 86 9z"/>
<path d="M188 1068 c-6 -82 3 -189 15 -185 7 2 13 27 15 55 2 29 7 52 11 52 4
0 31 -25 60 -55 48 -50 71 -66 71 -49 0 4 -20 32 -45 62 -25 30 -45 57 -45 61
0 4 18 25 40 46 43 42 49 55 26 55 -8 0 -34 -22 -57 -50 -23 -27 -46 -50 -51
-50 -4 0 -8 23 -8 50 0 37 -4 50 -14 50 -10 0 -16 -14 -18 -42z"/>
<path d="M450 994 c0 -88 3 -115 13 -112 8 3 13 38 15 116 2 95 0 112 -13 112
-13 0 -15 -18 -15 -116z"/>
<path d="M580 995 c0 -137 18 -157 22 -25 l3 91 70 -91 c38 -49 73 -90 77 -90
4 0 8 52 8 115 0 135 -18 158 -22 28 l-3 -86 -65 86 c-36 47 -71 86 -77 87
-10 0 -13 -29 -13 -115z"/>
<path d="M860 995 l0 -115 70 0 c56 0 70 3 70 15 0 12 -13 15 -55 15 l-55 0 0
40 0 40 45 0 c25 0 45 5 45 10 0 6 -20 10 -45 10 l-45 0 0 40 0 40 55 0 c30 0
55 5 55 10 0 6 -30 10 -70 10 l-70 0 0 -115z"/>
<path d="M1620 995 c0 -94 3 -115 15 -115 11 0 15 19 17 87 l3 88 65 -84 c36
-47 71 -86 78 -89 9 -3 12 24 12 112 0 96 -3 116 -15 116 -12 0 -15 -16 -15
-86 l0 -87 -66 87 c-36 47 -72 86 -80 86 -11 0 -14 -23 -14 -115z"/>
<path d="M1150 1028 c0 -4 4 -8 9 -8 6 0 12 4 15 8 3 5 -1 9 -9 9 -8 0 -15 -4
-15 -9z"/>
<path d="M1203 945 c0 -8 4 -12 9 -9 5 3 6 10 3 15 -9 13 -12 11 -12 -6z"/>
</g>
</svg>
